<svg t="1677253457736" class="icon" viewBox="0 0 1024 1024" version="1.1" xmlns="http://www.w3.org/2000/svg" p-id="4524" id="mx_n_1677253457737" width="16" height="16"><path d="M512 5.12C231.936 5.12 5.12 231.936 5.12 512s226.816 506.88 506.88 506.88 506.88-226.816 506.88-506.88-226.816-506.88-506.88-506.88z m3.584 796.672c-29.696 0-53.76-24.064-54.272-53.76 0.512-29.696 24.576-53.76 54.272-54.272 29.696 0.512 53.76 24.576 53.76 54.272s-24.064 53.76-53.76 53.76z m91.136-307.2c-28.16 22.528-47.616 54.272-54.272 89.6v36.352c-5.632 19.968-26.624 31.744-46.592 26.112-12.288-3.584-22.528-13.312-26.112-26.112v-27.648c6.656-53.76 33.792-102.4 76.288-136.192 36.864-29.696 60.928-72.192 68.096-118.784 4.096-51.712-34.304-97.28-86.016-101.376-5.12-0.512-10.752-0.512-15.872 0-72.192 0-113.152 47.104-115.2 135.168-2.048 18.432-16.896 32.256-35.328 32.768-18.432-0.512-33.28-14.336-34.816-32.768v-5.12C328.704 271.36 400.384 186.88 496.64 179.2c8.704-0.512 16.896-0.512 25.6 0 83.968-7.68 158.208 54.272 165.888 138.24 0.512 7.168 1.024 13.824 0.512 20.992-4.608 60.928-34.304 117.76-81.92 156.16z" p-id="4525" fill="#bfbfbf"></path></svg>